<?xml version="1.0" standalone="no"?>
<!DOCTYPE svg PUBLIC "-//W3C//DTD SVG 20010904//EN" "http://www.w3.org/TR/2001/REC-SVG-20010904/DTD/svg10.dtd">
<svg xmlns="http://www.w3.org/2000/svg" version="1.0" width="1024.000000pt" height="1024.000000pt" viewBox="0 0 1024.000000 1024.000000" preserveAspectRatio="xMidYMid meet">
<metadata>
Created by potrace 1.16, written by Peter Selinger 2001-2019
<meta name="Producer" content="Online-Convert"/></metadata>
<g transform="translate(0.000000,1024.000000) scale(0.100000,-0.100000)" fill="#000000" stroke="none">
<path d="M2075 6621 c-59 -28 -910 -886 -958 -966 -65 -110 -82 -174 -82 -315 0 -105 4 -135 23 -189 44 -123 92 -178 488 -572 409 -405 430 -422 565 -454 83 -19 209 -19 284 0 126 33 161 61 463 359 193 191 282 287 282 301 0 14 -53 72 -163 177 l-163 155 -224 -219 c-124 -120 -240 -230 -257 -244 -42 -34 -90 -34 -145 -1 -24 14 -181 164 -350 334 -285 285 -308 311 -308 343 0 32 40 75 625 660 492 492 623 628 613 638 -9 9 -93 12 -332 12 -292 0 -325 -2 -361 -19z"/>
<path d="M4093 6590 c-120 -22 -247 -92 -322 -177 -165 -187 -198 -495 -80 -741 72 -149 191 -243 354 -277 88 -19 142 -19 230 0 142 30 248 108 313 231 41 78 42 104 4 104 -22 0 -31 -8 -51 -45 -30 -57 -109 -130 -169 -158 -65 -29 -188 -29 -254 1 -102 46 -175 146 -204 281 -7 36 -14 121 -14 189 0 212 41 345 131 426 54 49 103 66 185 66 118 0 217 -78 291 -228 37 -75 62 -97 85 -74 7 7 8 78 3 202 -9 215 -12 223 -70 171 -20 -17 -41 -31 -47 -31 -6 0 -49 13 -97 29 -96 33 -207 45 -288 31z"/>
<path d="M4957 6230 c-92 -23 -192 -100 -217 -166 -32 -84 8 -151 85 -141 26 4 48 15 63 32 20 24 21 33 16 94 -6 65 -6 68 21 89 47 37 122 25 169 -27 14 -15 20 -41 24 -110 4 -85 4 -89 -19 -104 -13 -8 -59 -25 -102 -36 -111 -30 -165 -58 -224 -117 -101 -100 -107 -239 -13 -318 63 -53 149 -56 247 -10 49 23 102 78 103 106 1 7 9 -9 20 -36 10 -26 27 -57 36 -67 46 -51 170 -44 247 15 36 27 42 38 45 74 3 46 -3 50 -46 25 -35 -20 -59 -12 -72 22 -6 15 -10 126 -10 248 0 129 -5 238 -11 261 -30 109 -114 167 -248 172 -42 2 -93 -1 -114 -6z m163 -514 l0 -113 -44 -41 c-51 -47 -80 -58 -119 -43 -69 27 -87 135 -33 206 33 42 59 60 123 85 76 29 73 33 73 -94z"/>
<path d="M5923 6230 c-17 -6 -61 -30 -97 -54 l-66 -44 0 38 c0 21 -6 42 -12 48 -9 6 -59 3 -155 -11 l-143 -20 0 -34 c0 -32 1 -33 40 -33 29 0 42 -5 50 -19 11 -21 15 -937 4 -965 -4 -11 -19 -16 -50 -16 -24 0 -45 -3 -45 -7 -1 -5 -2 -19 -3 -33 l-1 -25 218 -3 218 -2 -3 32 c-3 31 -6 33 -45 36 -63 5 -68 16 -71 180 -3 118 -1 143 10 139 111 -46 235 -48 328 -5 203 93 290 391 181 623 -53 114 -140 176 -255 181 -39 2 -85 -1 -103 -6z m32 -110 c22 0 84 -59 104 -99 27 -52 41 -131 41 -224 0 -188 -74 -317 -180 -317 -44 0 -135 42 -149 69 -7 12 -11 107 -11 259 0 235 0 239 23 259 40 37 115 66 145 57 8 -2 20 -4 27 -4z"/>
<path d="M2666 6137 c-10 -7 -17 -21 -15 -30 2 -9 42 -55 88 -102 l85 -86 -417 -417 c-229 -230 -417 -424 -417 -432 0 -16 189 -210 204 -210 4 0 198 187 429 416 l421 416 63 -66 c103 -109 103 -108 103 229 0 197 -3 274 -12 283 -18 18 -507 17 -532 -1z"/>
<path d="M3896 5003 c-14 -37 -90 -241 -170 -453 -79 -212 -147 -393 -151 -403 -7 -16 0 -18 90 -15 l98 3 36 102 36 103 173 0 c94 0 175 0 179 1 4 0 23 -46 43 -103 l37 -103 101 -3 102 -3 -15 33 c-9 18 -89 229 -179 468 l-164 435 -95 3 -95 3 -26 -68z m184 -332 c33 -95 60 -175 60 -179 0 -4 -57 -6 -126 -4 -92 2 -125 6 -121 15 2 7 30 87 62 180 32 92 59 166 61 164 2 -2 31 -81 64 -176z"/>
<path d="M6120 4600 l0 -470 90 0 90 0 0 470 0 470 -90 0 -90 0 0 -470z"/>
<path d="M7760 4995 l0 -75 90 0 90 0 0 75 0 75 -90 0 -90 0 0 -75z"/>
<path d="M7300 4905 l0 -95 -65 0 -65 0 0 -70 0 -70 64 0 65 0 3 -207 c3 -192 5 -211 25 -249 12 -23 39 -53 60 -65 33 -21 50 -24 140 -24 56 0 103 2 105 5 2 3 2 37 0 76 l-4 71 -48 -5 c-44 -4 -52 -2 -80 26 l-30 30 0 171 0 171 84 0 84 0 -1 70 0 70 -83 0 -84 0 0 95 0 95 -85 0 -85 0 0 -95z"/>
<path d="M5602 4819 c-108 -13 -189 -71 -227 -162 -27 -65 -25 -67 74 -67 l89 0 5 30 c14 68 131 94 186 43 34 -32 47 -81 29 -105 -14 -19 -114 -48 -165 -48 -91 0 -194 -39 -236 -90 -81 -96 -21 -258 110 -296 96 -28 241 8 292 72 22 28 31 30 31 9 0 -8 13 -29 29 -47 27 -30 34 -33 105 -36 l76 -4 0 71 c0 62 -2 71 -18 71 -38 0 -42 19 -42 185 0 119 -4 176 -16 216 -35 118 -157 178 -322 158z m160 -431 c-4 -76 -21 -104 -75 -129 -65 -29 -122 -25 -158 10 -56 56 -26 133 57 146 22 3 64 12 94 19 91 22 86 24 82 -46z"/>
<path d="M4844 4801 c-23 -10 -54 -35 -70 -55 -34 -42 -41 -44 -41 -13 0 12 0 34 -1 50 l-2 27 -80 0 -80 0 0 -340 0 -340 84 0 84 0 4 208 c3 183 5 212 23 246 30 59 66 81 131 81 47 0 58 -4 84 -31 17 -17 35 -48 40 -70 5 -21 10 -128 10 -236 l0 -198 85 0 85 0 0 233 c0 281 -7 317 -79 388 -28 29 -61 51 -86 58 -61 17 -144 13 -191 -8z"/>
<path d="M8285 4804 c-55 -20 -132 -80 -172 -135 -94 -132 -76 -338 41 -455 135 -134 376 -133 496 3 35 40 70 115 70 150 0 10 -20 13 -79 13 -78 0 -79 0 -91 -30 -42 -101 -179 -116 -262 -29 -78 82 -75 223 7 305 50 49 96 63 155 45 36 -10 100 -69 100 -91 0 -6 37 -10 86 -10 84 0 85 0 78 23 -29 96 -99 176 -180 207 -65 24 -187 26 -249 4z"/>
<path d="M8935 4797 c-87 -42 -125 -98 -125 -182 0 -116 56 -165 239 -208 110 -26 141 -45 141 -88 0 -67 -126 -97 -189 -44 -16 14 -33 35 -36 45 -6 18 -16 20 -86 20 -87 0 -86 1 -67 -64 30 -98 140 -161 278 -159 163 3 270 85 270 208 0 118 -62 169 -257 215 -104 24 -135 44 -135 83 0 35 17 55 58 66 60 17 134 -13 149 -60 6 -16 17 -19 86 -19 43 0 79 1 79 3 0 31 -36 109 -62 134 -57 53 -94 67 -198 70 -84 4 -101 1 -145 -20z"/>
<path d="M6403 4798 c2 -7 64 -159 136 -337 89 -219 130 -332 127 -347 -8 -31 -52 -82 -87 -99 -15 -8 -44 -15 -64 -15 l-35 0 0 -75 0 -75 51 0 c113 0 198 49 255 146 14 24 93 211 176 416 82 205 152 379 155 386 4 10 -15 12 -87 10 l-93 -3 -83 -229 c-46 -126 -85 -230 -88 -233 -2 -2 -13 20 -24 49 -11 29 -50 135 -87 236 l-67 182 -95 0 c-72 0 -94 -3 -90 -12z"/>
<path d="M7760 4470 l0 -340 90 0 90 0 0 340 0 340 -90 0 -90 0 0 -340z"/>
</g>
</svg>
