<?xml version="1.0" encoding="utf-8"?>
<!-- Generator: Adobe Illustrator 21.0.0, SVG Export Plug-In . SVG Version: 6.00 Build 0)  -->
<svg version="1.1" id="Layer_1" xmlns="http://www.w3.org/2000/svg" xmlns:xlink="http://www.w3.org/1999/xlink" x="0px" y="0px"
	 viewBox="0 0 128 128" style="enable-background:new 0 0 128 128;" xml:space="preserve">
<title>EMAIL</title>
<path d="M48.3,64c0,8.7,7,15.7,15.7,15.7c1,0,1.8-0.8,1.8-1.8S65,76.2,64,76.2c-6.7,0-12.2-5.5-12.2-12.2c0-3.3,1.3-6.5,3.7-8.8
	c2.4-2.3,5.6-3.5,8.9-3.4c6.6,0.4,11.8,5.9,11.7,12.5v5.1c0,1-0.9,1.8-1.8,1.8c-1,0-1.7-0.8-1.8-1.8V64c0-4.8-3.8-8.6-8.6-8.6
	c-4.8,0-8.6,3.8-8.6,8.6c0,4.8,3.8,8.6,8.6,8.6c1.9,0,3.8-0.6,5.3-1.8c0.7,2.8,3.6,4.5,6.5,3.8c2.3-0.6,4-2.7,4-5.1v-5.1
	c0-8.5-6.6-15.6-15.1-16c-8.7-0.3-15.9,6.4-16.2,15.1C48.3,63.6,48.3,63.8,48.3,64z M64,69.1c-2.8,0-5.1-2.3-5.1-5.1
	c0-2.8,2.3-5.1,5.1-5.1c2.8,0,5.1,2.3,5.1,5.1C69.1,66.8,66.8,69.1,64,69.1z"/>
<path d="M126.3,19.5H1.8c-1,0-1.8,0.8-1.8,1.8v85.5c0,1,0.8,1.7,1.8,1.8h124.5c1,0,1.7-0.8,1.8-1.8V21.3
	C128,20.3,127.2,19.5,126.3,19.5z M85,64L85,64c0,11.6-9.4,21.1-21,21c-11.6,0-21-9.4-21-21s9.4-21,21-21C75.6,43,85,52.4,85,64z
	 M38.7,64.8l0.8,0.4c0.7,13.5,12.2,23.9,25.7,23.3c12.6-0.6,22.6-10.7,23.3-23.3l0.8-0.4l33.2,40.2H5.5L38.7,64.8z M3.5,101.9V47.8
	l31.9,15.4L3.5,101.9z M92.6,63.2l31.9-15.4v54.1L92.6,63.2z M3.5,23h121v20.9L88.4,61.3c-1.5-13.5-13.5-23.2-27-21.7
	c-11.4,1.2-20.5,10.3-21.7,21.7L3.5,43.9V23z"/>
</svg>
