<svg xmlns="http://www.w3.org/2000/svg" viewBox="0 0 48 48"><defs><style>.cls-1{fill:#201602;}</style></defs><title>Asset 44ldpi</title><g id="Layer_2" data-name="Layer 2"><g id="layer_1-2" data-name="layer 1"><path class="cls-1" d="M37,48A11,11,0,1,1,48,37,11,11,0,0,1,37,48Zm0-20a9,9,0,1,0,9,9A9,9,0,0,0,37,28Z"/><path class="cls-1" d="M10,27.25l-2-.11A16,16,0,0,1,14.65,15l1.17,1.62A13.94,13.94,0,0,0,10,27.25Z"/><path class="cls-1" d="M24,44a16.08,16.08,0,0,1-4.83-.74l.61-1.91a14.13,14.13,0,0,0,8.44,0l.6,1.91A16,16,0,0,1,24,44Z"/><path class="cls-1" d="M38,27.25a13.91,13.91,0,0,0-5.8-10.61L33.35,15A15.91,15.91,0,0,1,40,27.14Z"/><path class="cls-1" d="M37,40c-2.21,0-4-2.24-4-5a3.71,3.71,0,0,1,4-4,3.71,3.71,0,0,1,4,4C41,37.76,39.21,40,37,40Zm0-7c-1.79,0-2,1.14-2,2,0,1.6.93,3,2,3s2-1.4,2-3C39,34.14,38.79,33,37,33Z"/><path class="cls-1" d="M44,45H42V41.69a1,1,0,0,0-.84-1L37,40l-4.17.7a1,1,0,0,0-.83,1V45H30V41.69a3,3,0,0,1,2.51-2.95L36.84,38h.32l4.33.73A3,3,0,0,1,44,41.69Z"/><path class="cls-1" d="M24,22A11,11,0,1,1,35,11,11,11,0,0,1,24,22ZM24,2a9,9,0,1,0,9,9A9,9,0,0,0,24,2Z"/><path class="cls-1" d="M24,14c-2.21,0-4-2.24-4-5a3.71,3.71,0,0,1,4-4,3.71,3.71,0,0,1,4,4C28,11.76,26.21,14,24,14Zm0-7c-1.79,0-2,1.14-2,2,0,1.6.93,3,2,3s2-1.4,2-3C26,8.14,25.79,7,24,7Z"/><path class="cls-1" d="M31,19H29V15.69a1,1,0,0,0-.84-1L24,14l-4.17.7a1,1,0,0,0-.83,1V19H17V15.69a3,3,0,0,1,2.51-2.95L23.84,12h.32l4.33.73A3,3,0,0,1,31,15.69Z"/><path class="cls-1" d="M11,48A11,11,0,1,1,22,37,11,11,0,0,1,11,48Zm0-20a9,9,0,1,0,9,9A9,9,0,0,0,11,28Z"/><path class="cls-1" d="M11,40c-2.21,0-4-2.24-4-5a3.71,3.71,0,0,1,4-4,3.71,3.71,0,0,1,4,4C15,37.76,13.21,40,11,40Zm0-7c-1.79,0-2,1.14-2,2,0,1.6.93,3,2,3s2-1.4,2-3C13,34.14,12.79,33,11,33Z"/><path class="cls-1" d="M18,45H16V41.69a1,1,0,0,0-.84-1L11,40l-4.17.7a1,1,0,0,0-.83,1V45H4V41.69a3,3,0,0,1,2.51-2.95L10.84,38h.32l4.33.73A3,3,0,0,1,18,41.69Z"/></g></g></svg>