<?xml version="1.0" encoding="UTF-8"?>
<!DOCTYPE svg PUBLIC "-//W3C//DTD SVG 1.1//EN" "http://www.w3.org/Graphics/SVG/1.1/DTD/svg11.dtd">
<!-- Creator: CorelDRAW -->
<svg xmlns="http://www.w3.org/2000/svg" xml:space="preserve" width="6.82666in" height="6.82666in" style="shape-rendering:geometricPrecision; text-rendering:geometricPrecision; image-rendering:optimizeQuality; fill-rule:evenodd; clip-rule:evenodd"
viewBox="0 0 6.82666 6.82666"
 xmlns:xlink="http://www.w3.org/1999/xlink">
 <defs>
  <style type="text/css">
   <![CDATA[
    .fil6 {fill:none}
    .fil3 {fill:#6A6A6A}
    .fil0 {fill:#8C8D8D}
    .fil4 {fill:#444444;fill-rule:nonzero}
    .fil5 {fill:#565656;fill-rule:nonzero}
    .fil1 {fill:#5F5F5F;fill-rule:nonzero}
    .fil2 {fill:#6C6C6C;fill-rule:nonzero}
   ]]>
  </style>
 </defs>
 <g id="Layer_x0020_1">
  <metadata id="CorelCorpID_0Corel-Layer"/>
  <g id="_520367992">
   <path id="_520369216" class="fil0" d="M5.84572 2.06995c0.00250394,0.0066811 0.0535945,0.138441 0.0414685,0.137992l-1.40311 -0.0537953 -0.020874 -0.137205 1.38251 0.0530079z"/>
   <path id="_520369024" class="fil0" d="M2.37461 2.00633l-0.0198425 0.13085 -1.40594 0.0539016 0.0414724 -0.128929 1.38308 -0.0530354c0.000401575,-0.000937008 0.000811024,-0.00186614 0.00123228,-0.0027874z"/>
   <path id="_520369192" class="fil1" d="M4.47357 2.1262c-0.000161417,0.0252087 -0.00166142,0.0532323 -0.00335433,0.0846929 -0.000917323,0.0171063 -0.00188189,0.0350354 -0.00302362,0.0590039l-0.00451969 0.094748 -0.000287402 -1.5748e-005c-0.00250787,0.0526024 0.0351299,0.0978228 0.0859291,0.105988 0.223035,0.0513504 0.445461,0.0841535 0.667209,0.0968701 0.22385,0.0128386 0.446866,0.0050748 0.668961,-0.024874l-0.0136024 -0.101224 0.0136929 0.101504c0.0560551,-0.00755906 0.0953701,-0.0591417 0.087815,-0.115197 -0.00147244,-0.010937 -0.00463386,-0.0212362 -0.00916929,-0.0306732l-0.081374 -0.216969c-0.00162598,3.54331e-005 -0.00325984,1.9685e-005 -0.00490945,-4.33071e-005l-1.40337 -0.053811z"/>
   <path id="_520368784" class="fil1" d="M0.945161 2.17912l-0.0849252 0.226429 -0.000366142 -0.000137795c-0.0198583,0.0529646 0.0069685,0.112012 0.0599331,0.131878 0.0105787,0.00396457 0.0214016,0.00606299 0.0321024,0.0064685 0.218472,0.0234764 0.438228,0.0291929 0.659232,0.0170591 0.223713,-0.0122835 0.447862,-0.042689 0.672433,-0.0912835l5.51181e-005 8.66142e-005c0.0522323,-0.0112992 0.0864567,-0.0605787 0.08,-0.112618l-0.00415748 -0.0871102c-0.00114173,-0.0239646 -0.0021063,-0.0418937 -0.00302362,-0.059 -0.00172047,-0.0319055 -0.00324016,-0.0602795 -0.0033622,-0.085752l-1.40792 0.0539803z"/>
   <path id="_520368832" class="fil2" d="M5.49331 1.28688c-0.70639,-0.17572 -1.39333,-0.263594 -2.07998,-0.263594 -0.688862,0 -1.37801,0.0884291 -2.08679,0.265276l0.0244055 0.0992323 -0.0247953 -0.0993858c-0.0370945,0.00925591 -0.064374,0.0376535 -0.0739291,0.0720354l-0.268244 0.715201 1.38445 -0.0530827c0.0360157,-0.0840276 0.14889,-0.122213 0.471866,-0.177524 0.183465,-0.0314213 0.377913,-0.0471299 0.573039,-0.047126 0.19513,-3.93701e-006 0.389579,0.0157047 0.573043,0.047126 0.32435,0.0555472 0.436811,0.0938228 0.472323,0.178602l1.38439 0.0530787 -0.271748 -0.724535 -0.095622 0.0356102 0.0959016 -0.0359724c-0.0132087,-0.0352205 -0.0437441,-0.0588819 -0.0783071,-0.0649409z"/>
   <path id="_520368112" class="fil3" d="M1.61114 2.56081c-0.221004,0.0121339 -0.44076,0.00641732 -0.659232,-0.0170591 -0.0107008,-0.000405512 -0.0215236,-0.00250394 -0.0321024,-0.0064685 -0.00132677,-0.0005 -0.00263386,-0.00101969 -0.0039252,-0.00156299 0.140319,-0.0342913 0.307343,-0.0623622 0.491957,-0.0805945 0.334189,-0.0330079 0.655945,-0.0268661 0.892008,0.00956299 -0.0051811,0.00205118 -0.0105945,0.00370472 -0.0162165,0.0049252l-5.51181e-005 -8.66142e-005c-0.224571,0.0485945 -0.44872,0.079 -0.672433,0.0912835z"/>
   <path id="_520368016" class="fil3" d="M5.21274 2.56603c-0.220925,-0.0135236 -0.438539,-0.0446299 -0.652827,-0.0932283 -0.0105866,-0.00164173 -0.0210906,-0.00498425 -0.0311417,-0.0101457 -0.00125591,-0.000645669 -0.00249606,-0.00131496 -0.00371654,-0.00200394 0.143343,-0.0178228 0.237354,-0.0276929 0.497976,-0.023122 0.260626,0.00456693 0.642626,0.0400197 0.87289,0.10352 -0.00538189,0.00144094 -0.0109528,0.00246063 -0.0166811,0.00301969l-4.33071e-005 -9.44882e-005c-0.227315,0.0252283 -0.44089,0.0398858 -0.666457,0.0220551z"/>
  </g>
  <g id="_524661152">
   <g>
    <path id="_520367944" class="fil4" d="M1.9763 2.87999l0.66324 0c0.0610512,0 0.110543,0.0494961 0.110543,0.110543l0 0.66324c0,0.0610512 -0.0494921,0.110543 -0.110543,0.110543l-0.66324 0c-0.0610472,0 -0.110543,-0.0494921 -0.110543,-0.110543l0 -0.66324c0,-0.0610472 0.0494961,-0.110543 0.110543,-0.110543z"/>
    <path id="_520368304" class="fil5" d="M1.9763 2.87999l0.66324 0c0.0610512,0 0.110543,0.0417677 0.110543,0.0932874l0 0.559713c0,0.0515197 -0.0494921,0.0932913 -0.110543,0.0932913l-0.66324 0c-0.0610472,0 -0.110543,-0.0417717 -0.110543,-0.0932913l0 -0.559713c0,-0.0515197 0.0494961,-0.0932874 0.110543,-0.0932874z"/>
    <path id="_520368088" class="fil4" d="M3.0817 2.87999l0.66324 0c0.0610512,0 0.110543,0.0494961 0.110543,0.110543l0 0.66324c0,0.0610512 -0.0494921,0.110543 -0.110543,0.110543l-0.66324 0c-0.0610512,0 -0.110543,-0.0494921 -0.110543,-0.110543l0 -0.66324c0,-0.0610472 0.0494921,-0.110543 0.110543,-0.110543z"/>
    <path id="_520368160" class="fil5" d="M3.0817 2.87999l0.66324 0c0.0610512,0 0.110543,0.0417677 0.110543,0.0932874l0 0.559713c0,0.0515197 -0.0494921,0.0932913 -0.110543,0.0932913l-0.66324 0c-0.0610512,0 -0.110543,-0.0417717 -0.110543,-0.0932913l0 -0.559713c0,-0.0515197 0.0494921,-0.0932874 0.110543,-0.0932874z"/>
    <path id="_520367896" class="fil4" d="M4.18711 2.87999l0.66324 0c0.0610472,0 0.110543,0.0494961 0.110543,0.110543l0 0.66324c0,0.0610512 -0.0494961,0.110543 -0.110543,0.110543l-0.66324 0c-0.0610512,0 -0.110543,-0.0494921 -0.110543,-0.110543l0 -0.66324c0,-0.0610472 0.0494921,-0.110543 0.110543,-0.110543z"/>
    <path id="_520368400" class="fil5" d="M4.18711 2.87999l0.66324 0c0.0610472,0 0.110543,0.0417677 0.110543,0.0932874l0 0.559713c0,0.0515197 -0.0494961,0.0932913 -0.110543,0.0932913l-0.66324 0c-0.0610512,0 -0.110543,-0.0417717 -0.110543,-0.0932913l0 -0.559713c0,-0.0515197 0.0494921,-0.0932874 0.110543,-0.0932874z"/>
   </g>
   <g>
    <path id="_520368496" class="fil4" d="M1.9763 3.98539l0.66324 0c0.0610512,0 0.110543,0.0494921 0.110543,0.110543l0 0.66324c0,0.0610512 -0.0494921,0.110543 -0.110543,0.110543l-0.66324 0c-0.0610472,0 -0.110543,-0.0494921 -0.110543,-0.110543l0 -0.66324c0,-0.0610512 0.0494961,-0.110543 0.110543,-0.110543z"/>
    <path id="_246463400" class="fil5" d="M1.9763 3.98539l0.66324 0c0.0610512,0 0.110543,0.0417677 0.110543,0.0932874l0 0.559713c0,0.0515197 -0.0494921,0.0932874 -0.110543,0.0932874l-0.66324 0c-0.0610472,0 -0.110543,-0.0417677 -0.110543,-0.0932874l0 -0.559713c0,-0.0515197 0.0494961,-0.0932874 0.110543,-0.0932874z"/>
    <path id="_524660744" class="fil4" d="M3.0817 3.98539l0.66324 0c0.0610512,0 0.110543,0.0494921 0.110543,0.110543l0 0.66324c0,0.0610512 -0.0494921,0.110543 -0.110543,0.110543l-0.66324 0c-0.0610512,0 -0.110543,-0.0494921 -0.110543,-0.110543l0 -0.66324c0,-0.0610512 0.0494921,-0.110543 0.110543,-0.110543z"/>
    <path id="_524661512" class="fil5" d="M3.0817 3.98539l0.66324 0c0.0610512,0 0.110543,0.0417677 0.110543,0.0932874l0 0.559713c0,0.0515197 -0.0494921,0.0932874 -0.110543,0.0932874l-0.66324 0c-0.0610512,0 -0.110543,-0.0417677 -0.110543,-0.0932874l0 -0.559713c0,-0.0515197 0.0494921,-0.0932874 0.110543,-0.0932874z"/>
    <path id="_524661416" class="fil4" d="M4.18711 3.98539l0.66324 0c0.0610472,0 0.110543,0.0494921 0.110543,0.110543l0 0.66324c0,0.0610512 -0.0494961,0.110543 -0.110543,0.110543l-0.66324 0c-0.0610512,0 -0.110543,-0.0494921 -0.110543,-0.110543l0 -0.66324c0,-0.0610512 0.0494921,-0.110543 0.110543,-0.110543z"/>
    <path id="_524661728" class="fil5" d="M4.18711 3.98539l0.66324 0c0.0610472,0 0.110543,0.0417677 0.110543,0.0932874l0 0.559713c0,0.0515197 -0.0494961,0.0932874 -0.110543,0.0932874l-0.66324 0c-0.0610512,0 -0.110543,-0.0417677 -0.110543,-0.0932874l0 -0.559713c0,-0.0515197 0.0494921,-0.0932874 0.110543,-0.0932874z"/>
   </g>
   <g>
    <path id="_524661656" class="fil4" d="M1.9763 5.0908l0.66324 0c0.0610512,0 0.110543,0.0494921 0.110543,0.110543l0 0.66324c0,0.0610472 -0.0494921,0.110543 -0.110543,0.110543l-0.66324 0c-0.0610472,0 -0.110543,-0.0494961 -0.110543,-0.110543l0 -0.66324c0,-0.0610512 0.0494961,-0.110543 0.110543,-0.110543z"/>
    <path id="_524662112" class="fil5" d="M1.9763 5.0908l0.66324 0c0.0610512,0 0.110543,0.0417677 0.110543,0.0932874l0 0.559713c0,0.0515197 -0.0494921,0.0932874 -0.110543,0.0932874l-0.66324 0c-0.0610472,0 -0.110543,-0.0417677 -0.110543,-0.0932874l0 -0.559713c0,-0.0515197 0.0494961,-0.0932874 0.110543,-0.0932874z"/>
    <path id="_524661824" class="fil4" d="M3.0817 5.0908l0.66324 0c0.0610512,0 0.110543,0.0494921 0.110543,0.110543l0 0.66324c0,0.0610472 -0.0494921,0.110543 -0.110543,0.110543l-0.66324 0c-0.0610512,0 -0.110543,-0.0494961 -0.110543,-0.110543l0 -0.66324c0,-0.0610512 0.0494921,-0.110543 0.110543,-0.110543z"/>
    <path id="_524661560" class="fil5" d="M3.0817 5.0908l0.66324 0c0.0610512,0 0.110543,0.0417677 0.110543,0.0932874l0 0.559713c0,0.0515197 -0.0494921,0.0932874 -0.110543,0.0932874l-0.66324 0c-0.0610512,0 -0.110543,-0.0417677 -0.110543,-0.0932874l0 -0.559713c0,-0.0515197 0.0494921,-0.0932874 0.110543,-0.0932874z"/>
    <path id="_524661368" class="fil4" d="M4.18711 5.0908l0.66324 0c0.0610472,0 0.110543,0.0494921 0.110543,0.110543l0 0.66324c0,0.0610472 -0.0494961,0.110543 -0.110543,0.110543l-0.66324 0c-0.0610512,0 -0.110543,-0.0494961 -0.110543,-0.110543l0 -0.66324c0,-0.0610512 0.0494921,-0.110543 0.110543,-0.110543z"/>
    <path id="_524661584" class="fil5" d="M4.18711 5.0908l0.66324 0c0.0610472,0 0.110543,0.0417677 0.110543,0.0932874l0 0.559713c0,0.0515197 -0.0494961,0.0932874 -0.110543,0.0932874l-0.66324 0c-0.0610512,0 -0.110543,-0.0417677 -0.110543,-0.0932874l0 -0.559713c0,-0.0515197 0.0494921,-0.0932874 0.110543,-0.0932874z"/>
   </g>
  </g>
 </g>
 <rect class="fil6" width="6.82666" height="6.82666"/>
</svg>
